<svg xmlns="http://www.w3.org/2000/svg" width="67.379" height="67.379" viewBox="0 0 67.379 67.379">
  <path id="customer" d="M14.438,57.535a1.084,1.084,0,0,1-1.876,1.087A33.689,33.689,0,0,1,61.588,14.507l-.7-2.466a1.086,1.086,0,0,1,2.089-.594l1.65,5.784a1.087,1.087,0,0,1-1.083,1.382l-5.934.213a1.083,1.083,0,0,1-.076-2.165l3.166-.114A31.523,31.523,0,0,0,14.438,57.535ZM41.689,20.549a4.6,4.6,0,1,0,4.6,4.6,4.6,4.6,0,0,0-4.6-4.6ZM34.3,39.238H49.076a1.358,1.358,0,0,0,1.3-1.768,9.107,9.107,0,0,0-17.364,0,1.358,1.358,0,0,0,1.3,1.768ZM26.745,21.387a3.881,3.881,0,1,0,3.881,3.881,3.881,3.881,0,0,0-3.881-3.881Zm29.889,0a3.881,3.881,0,1,0,3.881,3.881,3.881,3.881,0,0,0-3.881-3.881ZM52.6,37.357h9.963a1.358,1.358,0,0,0,1.275-1.828,7.677,7.677,0,0,0-13.185-2.157A11.209,11.209,0,0,1,52.6,37.357Zm-31.785,0h9.963a11.208,11.208,0,0,1,1.948-3.985,7.677,7.677,0,0,0-13.185,2.157,1.358,1.358,0,0,0,1.275,1.828Zm10.217,5.614H19.113v3.055l3.74,1.44a19.27,19.27,0,0,0,2.339,5.643l-1.628,3.665L27.886,61.1l3.666-1.628a19.27,19.27,0,0,0,5.642,2.339l1.44,3.741h6.111l1.44-3.74a19.265,19.265,0,0,0,5.643-2.339L55.493,61.1l4.321-4.321-1.628-3.666a19.27,19.27,0,0,0,2.339-5.642l3.741-1.44V42.971H52.346a10.657,10.657,0,0,1-21.314,0Zm16.619,0H35.728a5.962,5.962,0,1,0,11.923,0ZM22.494,71.337l-.7-2.463A33.69,33.69,0,0,0,70.817,24.759a1.084,1.084,0,0,0-1.876,1.087A31.522,31.522,0,0,1,22.68,66.831l3.168-.114a1.083,1.083,0,1,0-.076-2.165l-5.934.213a1.087,1.087,0,0,0-1.083,1.382l1.65,5.784a1.086,1.086,0,1,0,2.089-.594Z" transform="translate(-8 -8)" fill="#d22222" fill-rule="evenodd"/>
</svg>
