<svg xmlns="http://www.w3.org/2000/svg" width="96" height="96" viewBox="0 0 96 96">
  <g id="Groupe_6581" data-name="Groupe 6581" transform="translate(-1389.751 -3059)">
    <rect id="Rectangle_5054" data-name="Rectangle 5054" width="96" height="96" rx="48" transform="translate(1389.751 3059)" fill="#3272d3"/>
    <path id="Tracé_13209" data-name="Tracé 13209" d="M1253.06,363.1l-10.36-11.666a2.425,2.425,0,0,0-.78-.568,2.332,2.332,0,0,0-.95-.2h-18.66a5.893,5.893,0,0,0-5.5,3.579,5.836,5.836,0,0,0-.48,2.254v35a5.941,5.941,0,0,0,1.78,4.154,5.9,5.9,0,0,0,4.2,1.679h25.38a5.9,5.9,0,0,0,4.2-1.679,5.941,5.941,0,0,0,1.78-4.154V364.667A2.375,2.375,0,0,0,1253.06,363.1ZM1228,374h7a2.333,2.333,0,0,1,0,4.667h-7a2.333,2.333,0,1,1,0-4.667Zm14,14h-14a2.333,2.333,0,0,1,0-4.667h14a2.333,2.333,0,1,1,0,4.667Zm-.68-23.333a1.84,1.84,0,0,1-1.65-1.984v-7.35l8.72,9.334Z" transform="translate(202.751 2733)" fill="#fff"/>
  </g>
</svg>
