<svg xmlns="http://www.w3.org/2000/svg" width="96" height="96" viewBox="0 0 96 96">
  <g id="Groupe_6578" data-name="Groupe 6578" transform="translate(-360.751 -3059)">
    <rect id="Rectangle_5051" data-name="Rectangle 5051" width="96" height="96" rx="48" transform="translate(360.751 3059)" fill="#3272d3"/>
    <path id="Tracé_13206" data-name="Tracé 13206" d="M226.323,391.01l-7.933-7.91a18.65,18.65,0,0,0-18.365-29.741,18.666,18.666,0,0,0,3.642,36.974A18.479,18.479,0,0,0,215.1,386.39l7.91,7.933a2.343,2.343,0,1,0,3.313-3.313Zm-36.656-19.343a14,14,0,1,1,4.1,9.9A14,14,0,0,1,189.667,371.667Z" transform="translate(202.751 2733)" fill="#fff"/>
  </g>
</svg>
