<svg xmlns="http://www.w3.org/2000/svg" xmlns:xlink="http://www.w3.org/1999/xlink" width="28" height="28" viewBox="0 0 28 28">
  <defs>
    <clipPath id="clip-path">
      <rect id="Rectangle_5687" data-name="Rectangle 5687" width="28" height="28" transform="translate(0.001 -0.468)" fill="#fff"/>
    </clipPath>
  </defs>
  <g id="Groupe_5646" data-name="Groupe 5646" transform="translate(-0.001 0.468)" clip-path="url(#clip-path)">
    <path id="Tracé_13218" data-name="Tracé 13218" d="M229.3,720.653a9.944,9.944,0,0,0-5.214-2.878,14.775,14.775,0,0,0-2.568-.467,6.133,6.133,0,1,0-8.637.777,4.537,4.537,0,0,0,1.4.857v1.711l-1.245-1.167a2.913,2.913,0,0,0-4.046,0,2.726,2.726,0,0,0-.078,3.892l3.58,4.2a8.342,8.342,0,0,0,1.089,3.035,9.118,9.118,0,0,0,1.479,1.945v1.479a.735.735,0,0,0,.777.779H226.42a.838.838,0,0,0,.779-.779v-2.023a9.939,9.939,0,0,0,2.256-6.3V721.2C229.533,720.886,229.455,720.731,229.3,720.653Zm-17.12-7.314a4.592,4.592,0,1,1,9.183.155,4.387,4.387,0,0,1-1.712,3.5v-3.89A2.645,2.645,0,0,0,217,710.615a2.543,2.543,0,0,0-2.645,2.491v4.046A4.654,4.654,0,0,1,212.18,713.339Zm15.8,12.294a8.022,8.022,0,0,1-1.945,5.524.788.788,0,0,0-.312.545v1.634h-9.026v-1.089a.967.967,0,0,0-.312-.623,6.107,6.107,0,0,1-1.4-1.711,7.659,7.659,0,0,1-.934-2.646,1.117,1.117,0,0,0-.155-.467l-3.735-4.435a1.29,1.29,0,0,1-.39-.934,1.436,1.436,0,0,1,.39-.934,1.42,1.42,0,0,1,1.868,0l2.256,2.256v2.334l1.479-.777V713.106a1.055,1.055,0,0,1,1.167-.934,1.037,1.037,0,0,1,1.089.934v8.948l1.556.312v-3.58c.078-.077.156-.077.233-.155a11.71,11.71,0,0,1,1.634.155v3.969l1.245.233v-4.046l.934.233a6.812,6.812,0,0,1,1.167.389v3.89l1.245.233v-3.579a6.26,6.26,0,0,1,1.868,1.322Z" transform="translate(-205.245 -706.781)" fill="#fff"/>
  </g>
</svg>
