<svg xmlns="http://www.w3.org/2000/svg" xmlns:xlink="http://www.w3.org/1999/xlink" width="636" height="638" viewBox="0 0 636 638">
  <defs>
    <clipPath id="clip-path">
      <rect id="Rectangle_5758" data-name="Rectangle 5758" width="636" height="638" transform="translate(-0.403)" fill="#fff"/>
    </clipPath>
    <clipPath id="clip-path-2">
      <rect id="Rectangle_5738" data-name="Rectangle 5738" width="58.441" height="58.441" fill="#fff"/>
    </clipPath>
    <clipPath id="clip-path-3">
      <rect id="Rectangle_5740" data-name="Rectangle 5740" width="58.441" height="53.945" fill="#fff"/>
    </clipPath>
    <clipPath id="clip-path-7">
      <rect id="Rectangle_5750" data-name="Rectangle 5750" width="71.028" height="50.38" fill="#fff"/>
    </clipPath>
    <clipPath id="clip-path-8">
      <rect id="Rectangle_5752" data-name="Rectangle 5752" width="62.936" height="43.756" fill="#fff"/>
    </clipPath>
    <clipPath id="clip-path-9">
      <rect id="Rectangle_5755" data-name="Rectangle 5755" width="53.945" height="61.457" fill="#fff"/>
    </clipPath>
  </defs>
  <g id="Groupe_5712" data-name="Groupe 5712" transform="translate(0.403)" clip-path="url(#clip-path)">
    <g id="Groupe_5689" data-name="Groupe 5689" transform="translate(195.439 424.684)">
      <rect id="Rectangle_5737" data-name="Rectangle 5737" width="127" height="126" rx="12.265" transform="translate(0.158 0.316)" fill="#fff"/>
    </g>
    <g id="Groupe_5690" data-name="Groupe 5690" transform="translate(229.604 458.849)" clip-path="url(#clip-path-2)">
      <path id="Tracé_13277" data-name="Tracé 13277" d="M977.138,454.08v-6.863a5.286,5.286,0,0,0,3.048-4.763V442.3a5.285,5.285,0,0,0-5.285-5.285h-.157a5.285,5.285,0,0,0-5.285,5.285v.157a5.286,5.286,0,0,0,3.048,4.763v6.863a14.967,14.967,0,0,0-7.117,3.133l-18.822-14.661a5.871,5.871,0,0,0,.212-1.482,5.955,5.955,0,1,0-5.963,5.942,5.884,5.884,0,0,0,2.933-.8l18.535,14.423a15.013,15.013,0,0,0,.229,16.91l-5.637,5.639a4.841,4.841,0,0,0-1.409-.23,4.89,4.89,0,1,0,4.894,4.894,4.84,4.84,0,0,0-.229-1.409l5.577-5.579a15.038,15.038,0,1,0,11.43-26.784Zm-2.312,22.573a12.584,12.584,0,1,1,.008,0" transform="translate(-933.254 -434.297)" fill="#ff7a59"/>
    </g>
    <g id="Groupe_5691" data-name="Groupe 5691" transform="translate(195.439 128.884)">
      <rect id="Rectangle_5739" data-name="Rectangle 5739" width="127" height="127" rx="12.265" transform="translate(0.158 0.116)" fill="#fff"/>
    </g>
    <g id="Groupe_5692" data-name="Groupe 5692" transform="translate(229.604 165.747)" clip-path="url(#clip-path-3)">
      <path id="Tracé_13278" data-name="Tracé 13278" d="M972,176.043h15.1a2.573,2.573,0,0,1,2.583,2.562v13.644a9.454,9.454,0,0,1-9.491,9.418h-.044a9.453,9.453,0,0,1-9.492-9.416V177.381A1.344,1.344,0,0,1,972,176.043Z" transform="translate(-931.235 -155.813)" fill="#5059c9"/>
      <path id="Tracé_13279" data-name="Tracé 13279" d="M981.911,174.137a6.069,6.069,0,1,0-6.116-6.068A6.092,6.092,0,0,0,981.911,174.137Z" transform="translate(-930.944 -156.606)" fill="#5059c9"/>
      <path id="Tracé_13280" data-name="Tracé 13280" d="M964.045,174.425a8.766,8.766,0,1,0-8.834-8.765A8.8,8.8,0,0,0,964.045,174.425Z" transform="translate(-932.106 -156.894)" fill="#7b83eb"/>
      <path id="Tracé_13281" data-name="Tracé 13281" d="M976.187,176.043H951.269a2.543,2.543,0,0,0-2.491,2.594V194.2a14.962,14.962,0,1,0,29.9,0V178.637A2.543,2.543,0,0,0,976.187,176.043Z" transform="translate(-932.469 -155.813)" fill="#7b83eb"/>
      <path id="Tracé_13282" data-name="Tracé 13282" d="M965.087,176.043V197.85a2.483,2.483,0,0,1-1.549,2.28,2.442,2.442,0,0,1-.938.188H949.974c-.176-.445-.339-.89-.475-1.348a16.332,16.332,0,0,1-.721-4.774V178.632a2.54,2.54,0,0,1,2.488-2.589Z" transform="translate(-932.469 -155.813)" opacity="0.1"/>
      <path id="Tracé_13283" data-name="Tracé 13283" d="M963.729,176.043V199.2a2.393,2.393,0,0,1-.19.931,2.5,2.5,0,0,1-2.3,1.537H950.613c-.231-.445-.449-.891-.639-1.349a13.391,13.391,0,0,1-.475-1.348,16.332,16.332,0,0,1-.721-4.774V178.632a2.54,2.54,0,0,1,2.488-2.589Z" transform="translate(-932.469 -155.813)" opacity="0.2"/>
      <path id="Tracé_13284" data-name="Tracé 13284" d="M963.729,176.043V196.5a2.5,2.5,0,0,1-2.488,2.468H949.5a16.332,16.332,0,0,1-.721-4.774V178.632a2.54,2.54,0,0,1,2.488-2.589Z" transform="translate(-932.469 -155.813)" opacity="0.2"/>
      <path id="Tracé_13285" data-name="Tracé 13285" d="M962.369,176.043V196.5a2.5,2.5,0,0,1-2.487,2.468H949.5a16.332,16.332,0,0,1-.721-4.774V178.632a2.54,2.54,0,0,1,2.488-2.589Z" transform="translate(-932.469 -155.813)" opacity="0.2"/>
      <path id="Tracé_13286" data-name="Tracé 13286" d="M964.711,169.575v4.248c-.231.014-.449.026-.679.026s-.449-.013-.679-.026a7.579,7.579,0,0,1-1.36-.216,8.82,8.82,0,0,1-6.116-5.152,7.393,7.393,0,0,1-.435-1.349h6.782A2.487,2.487,0,0,1,964.711,169.575Z" transform="translate(-932.093 -156.318)" opacity="0.1"/>
      <path id="Tracé_13287" data-name="Tracé 13287" d="M963.329,170.851v2.9a7.579,7.579,0,0,1-1.36-.216,8.82,8.82,0,0,1-6.116-5.152h4.987A2.487,2.487,0,0,1,963.329,170.851Z" transform="translate(-932.07 -156.246)" opacity="0.2"/>
      <path id="Tracé_13288" data-name="Tracé 13288" d="M963.329,170.851v2.9a7.579,7.579,0,0,1-1.36-.216,8.82,8.82,0,0,1-6.116-5.152h4.987A2.487,2.487,0,0,1,963.329,170.851Z" transform="translate(-932.07 -156.246)" opacity="0.2"/>
      <path id="Tracé_13289" data-name="Tracé 13289" d="M961.97,170.851v2.684a8.82,8.82,0,0,1-6.116-5.152h3.629A2.487,2.487,0,0,1,961.97,170.851Z" transform="translate(-932.07 -156.246)" opacity="0.2"/>
      <path id="Tracé_13290" data-name="Tracé 13290" d="M935.831,168.383h24.918a2.482,2.482,0,0,1,2.491,2.472v24.726a2.482,2.482,0,0,1-2.491,2.472H935.831a2.482,2.482,0,0,1-2.491-2.472V170.855A2.482,2.482,0,0,1,935.831,168.383Z" transform="translate(-933.34 -156.246)" fill="#fff"/>
      <path id="Tracé_13291" data-name="Tracé 13291" d="M954.4,177.43h-4.981v13.459h-3.173V177.43h-4.958v-2.61H954.4Z" transform="translate(-932.892 -155.882)" fill="#fff"/>
    </g>
    <g id="Groupe_5693" data-name="Groupe 5693" transform="translate(195.439 276.784)">
      <rect id="Rectangle_5741" data-name="Rectangle 5741" width="127" height="127" rx="12.265" transform="translate(0.158 0.216)" fill="#fff"/>
    </g>
    <g id="Groupe_5694" data-name="Groupe 5694" transform="translate(229.604 310.949)" clip-path="url(#clip-path-2)">
      <path id="Tracé_13292" data-name="Tracé 13292" d="M969.866,323.573a17.48,17.48,0,0,1-1.122,6.17,17.546,17.546,0,0,1-6.172,1.124h-.024a17.549,17.549,0,0,1-6.169-1.123,17.487,17.487,0,0,1-1.123-6.171v-.025a17.478,17.478,0,0,1,1.121-6.168,17.468,17.468,0,0,1,6.172-1.124h.024a17.468,17.468,0,0,1,6.172,1.124,17.47,17.47,0,0,1,1.122,6.168v.025Zm21.509-4.883H974.319l12.06-12.061a29.4,29.4,0,0,0-3.157-3.731h0a29.439,29.439,0,0,0-3.731-3.154L967.43,311.8V294.747a29.433,29.433,0,0,0-4.854-.407h-.031a29.4,29.4,0,0,0-4.854.407V311.8l-12.061-12.061A29.217,29.217,0,0,0,941.9,302.9l-.006,0a29.387,29.387,0,0,0-3.152,3.726L950.8,318.691H933.747s-.407,3.2-.407,4.86v.021a29.252,29.252,0,0,0,.407,4.86H950.8l-12.062,12.061a29.443,29.443,0,0,0,6.888,6.888l12.061-12.062v17.057a29.479,29.479,0,0,0,4.849.407h.041a29.48,29.48,0,0,0,4.849-.407V335.318l12.061,12.062a29.45,29.45,0,0,0,3.731-3.156l0,0a29.614,29.614,0,0,0,3.155-3.73l-12.062-12.061h17.058a29.233,29.233,0,0,0,.406-4.849v-.042A29.233,29.233,0,0,0,991.375,318.691Z" transform="translate(-933.34 -294.34)" fill="#ff4a00"/>
    </g>
    <g id="Groupe_5695" data-name="Groupe 5695" transform="translate(343.339 83.458)">
      <rect id="Rectangle_5743" data-name="Rectangle 5743" width="127" height="127" rx="12.265" transform="translate(0.258 -0.458)" fill="#fff"/>
    </g>
    <path id="Tracé_13293" data-name="Tracé 13293" d="M1102.645,150.343a25.028,25.028,0,0,1-14.4-4.8,23.663,23.663,0,0,1-9.075-14.737c0-.343-.18-.857-.18-1.029a2.665,2.665,0,0,1,2.578-3.084h1.194a20.732,20.732,0,0,0,7.025,11.481,19.83,19.83,0,0,0,12.688,4.456c10.966.171,21.762-9.6,28.619-20.222a2.769,2.769,0,0,0-1.88-.857h-53.307a2.639,2.639,0,0,0-2.567,2.57v32.046a2.639,2.639,0,0,0,2.567,2.571h53.307a2.639,2.639,0,0,0,2.567-2.571V128.237C1122.7,144.173,1112.248,150.343,1102.645,150.343Z" transform="translate(-695.836 6.859)" fill="#00baff"/>
    <path id="Tracé_13294" data-name="Tracé 13294" d="M1102.177,142.423a20.057,20.057,0,0,1-19.713-15.937h-1.194a2.577,2.577,0,0,0-2.578,3.085c0,.343.18.686.18,1.028a23.662,23.662,0,0,0,9.075,14.738,24.214,24.214,0,0,0,14.4,4.8c9.772,0,20.051-6.17,29.136-22.107v-4.284a2.362,2.362,0,0,0-.518-1.542C1123.94,132.826,1113.312,142.594,1102.177,142.423Z" transform="translate(-695.537 6.896)" fill="#fff"/>
    <g id="Groupe_5696" data-name="Groupe 5696" transform="translate(343.339 231.358)">
      <rect id="Rectangle_5744" data-name="Rectangle 5744" width="127" height="127" rx="12.265" transform="translate(0.258 -0.358)" fill="#fff"/>
    </g>
    <g id="Groupe_5697" data-name="Groupe 5697" transform="translate(377.504 265.523)" clip-path="url(#clip-path-2)">
      <path id="Tracé_13295" data-name="Tracé 13295" d="M1117.285,264.524l-13.839-1.537-16.924,1.537L1084.99,279.9l1.532,15.38,15.382,1.923,15.382-1.923,1.532-15.764Z" transform="translate(-1072.682 -250.683)" fill="#fff"/>
      <path id="Tracé_13296" data-name="Tracé 13296" d="M1092.537,287.966a5.972,5.972,0,0,1-2.377-3.41l2.673-1.1a4.061,4.061,0,0,0,1.268,2.145,3.274,3.274,0,0,0,2.187.757,3.349,3.349,0,0,0,2.24-.8,2.627,2.627,0,0,0-.042-4.08,3.851,3.851,0,0,0-2.483-.8h-1.542v-2.641h1.384a3.355,3.355,0,0,0,2.155-.692,2.292,2.292,0,0,0,.877-1.9,2.108,2.108,0,0,0-.782-1.711,3.055,3.055,0,0,0-2-.642,2.64,2.64,0,0,0-1.859.628,3.652,3.652,0,0,0-1.014,1.541l-2.641-1.1a5.86,5.86,0,0,1,1.933-2.625,5.578,5.578,0,0,1,3.613-1.139,6.618,6.618,0,0,1,2.916.626,4.989,4.989,0,0,1,2.018,1.738,4.373,4.373,0,0,1,.729,2.5,4.083,4.083,0,0,1-.676,2.392,4.735,4.735,0,0,1-1.669,1.5v.157a5.116,5.116,0,0,1,2.145,1.672,4.367,4.367,0,0,1,.834,2.692,5.056,5.056,0,0,1-.792,2.8,5.509,5.509,0,0,1-2.2,1.933,6.912,6.912,0,0,1-3.148.708A6.533,6.533,0,0,1,1092.537,287.966Z" transform="translate(-1072.391 -250.264)" fill="#1a73e8"/>
      <path id="Tracé_13297" data-name="Tracé 13297" d="M1108.144,274.7l-2.905,2.118-1.468-2.223,5.25-3.79h2.018V288.69h-2.895Z" transform="translate(-1071.623 -250.241)" fill="#1a73e8"/>
      <path id="Tracé_13298" data-name="Tracé 13298" d="M1115.724,307.564l13.839-13.841-6.92-3.076-6.92,3.076-3.074,6.921Z" transform="translate(-1071.122 -249.122)" fill="#ea4335"/>
      <path id="Tracé_13299" data-name="Tracé 13299" d="M1083.53,300.479l3.074,6.921h30.763V293.558H1086.6Z" transform="translate(-1072.765 -248.958)" fill="#34a853"/>
      <path id="Tracé_13300" data-name="Tracé 13300" d="M1077.957,251.34a4.611,4.611,0,0,0-4.617,4.615V295.94l6.92,3.075,6.92-3.075V265.181h30.763l3.074-6.921-3.074-6.921Z" transform="translate(-1073.34 -251.34)" fill="#4285f4"/>
      <path id="Tracé_13301" data-name="Tracé 13301" d="M1073.34,293.558v9.227a4.611,4.611,0,0,0,4.617,4.615h9.223V293.558Z" transform="translate(-1073.34 -248.958)" fill="#188038"/>
      <path id="Tracé_13302" data-name="Tracé 13302" d="M1115.56,264.606v30.759H1129.4V264.606l-6.92-3.075Z" transform="translate(-1070.958 -250.765)" fill="#fbbc04"/>
      <path id="Tracé_13303" data-name="Tracé 13303" d="M1129.4,265.181v-9.227a4.618,4.618,0,0,0-4.617-4.615h-9.223v13.841Z" transform="translate(-1070.958 -251.34)" fill="#1967d2"/>
    </g>
    <g id="Groupe_5698" data-name="Groupe 5698" transform="translate(343.339 379.258)">
      <rect id="Rectangle_5746" data-name="Rectangle 5746" width="127" height="127" rx="12.265" transform="translate(0.258 -0.258)" fill="#fff"/>
    </g>
    <g id="Groupe_5700" data-name="Groupe 5700" transform="translate(377.504 413.423)" clip-path="url(#clip-path-2)">
      <g id="Groupe_5699" data-name="Groupe 5699">
        <path id="Tracé_13304" data-name="Tracé 13304" d="M1077.27,420.338a25.07,25.07,0,0,0,14.135,22.561l-11.959-32.762A24.965,24.965,0,0,0,1077.27,420.338Zm41.993-1.265a13.138,13.138,0,0,0-2.071-6.913c-1.268-2.065-2.462-3.814-2.462-5.878a4.346,4.346,0,0,1,4.215-4.45c.106,0,.211.014.317.02a25.063,25.063,0,0,0-37.873,4.718c.591.018,1.151.03,1.616.03,2.62,0,6.687-.318,6.687-.318a1.036,1.036,0,0,1,.158,2.065s-1.363.16-2.874.239l9.128,27.152,5.494-16.453-3.909-10.7c-1.352-.079-2.63-.239-2.63-.239a1.035,1.035,0,0,1,.159-2.064s4.141.318,6.6.318c2.62,0,6.677-.318,6.677-.318a1.036,1.036,0,0,1,.169,2.064s-1.363.16-2.873.239l9.064,26.946,2.493-8.354C1118.439,423.71,1119.263,421.219,1119.263,419.073Z" transform="translate(-1073.118 -391.118)" fill="#00749a"/>
        <path id="Tracé_13305" data-name="Tracé 13305" d="M1101.822,421.835l-7.522,21.854a25.067,25.067,0,0,0,15.4-.4,2.155,2.155,0,0,1-.18-.345Zm21.551-14.22a19.6,19.6,0,0,1,.169,2.578,23.719,23.719,0,0,1-1.9,8.979l-7.659,22.139a25.064,25.064,0,0,0,9.392-33.695Z" transform="translate(-1072.157 -390.422)" fill="#00749a"/>
        <path id="Tracé_13306" data-name="Tracé 13306" d="M1102.561,391.34a29.221,29.221,0,1,0,29.221,29.22A29.255,29.255,0,0,0,1102.561,391.34Zm0,57.1a27.881,27.881,0,1,1,27.879-27.882A27.913,27.913,0,0,1,1102.561,448.442Z" transform="translate(-1073.34 -391.34)" fill="#00749a"/>
      </g>
    </g>
    <g id="Groupe_5701" data-name="Groupe 5701" transform="translate(46.483 83.458)">
      <rect id="Rectangle_5748" data-name="Rectangle 5748" width="127" height="127" rx="12.265" transform="translate(0.114 -0.458)" fill="#fff"/>
    </g>
    <path id="Tracé_13307" data-name="Tracé 13307" d="M821.555,146.573l29.225-29.6v-1.7a4.746,4.746,0,0,0-4.7-4.786H797.045a4.746,4.746,0,0,0-4.705,4.786v34.9l16.224-16.408Z" transform="translate(-711.692 6.235)" fill="#ff9c0b"/>
    <path id="Tracé_13308" data-name="Tracé 13308" d="M808.569,146.067,792.34,162.539v1.538a4.746,4.746,0,0,0,4.705,4.786h49.031a4.745,4.745,0,0,0,4.7-4.786V129.525l-29.225,29.6Z" transform="translate(-711.692 7.309)" fill="#fb5722"/>
    <g id="Groupe_5702" data-name="Groupe 5702" transform="translate(80.648 123.21)">
      <path id="Tracé_13309" data-name="Tracé 13309" d="M792.34,149.833l16.224-16.408,12.992,12.8,29.225-29.6,0,13.628-29.221,29.594-12.987-13.056L792.34,163.267Z" transform="translate(-792.34 -116.629)" fill="#f2f2f2"/>
    </g>
    <path id="Tracé_13310" data-name="Tracé 13310" d="M814.2,152.089v-13.5l-6.5,6.962Z" transform="translate(-710.825 7.821)" fill="#ff9b07"/>
    <g id="Groupe_5703" data-name="Groupe 5703" transform="translate(47.539 231.358)">
      <rect id="Rectangle_5749" data-name="Rectangle 5749" width="127" height="127" rx="12.265" transform="translate(0.058 -0.358)" fill="#fff"/>
    </g>
    <g id="Groupe_5704" data-name="Groupe 5704" transform="translate(75.411 269.12)" clip-path="url(#clip-path-7)">
      <path id="Tracé_13311" data-name="Tracé 13311" d="M821.371,262.612v21.911H803.092Zm0-7.862a9.044,9.044,0,0,1-2.675,6.414,9.178,9.178,0,0,1-12.925,0,9.026,9.026,0,0,1-2.679-6.414Zm3.011,29.778a9.043,9.043,0,0,1,2.679-6.418,9.188,9.188,0,0,1,12.925,0,9.061,9.061,0,0,1,2.675,6.418Zm0-29.778h18.284l-18.284,21.911ZM834.6,303.281a3.61,3.61,0,0,0,.7-.054,3.5,3.5,0,0,0,.672-.185,3.617,3.617,0,0,0,.618-.306,3.847,3.847,0,0,0,.549-.425l1.254,1.345a4.944,4.944,0,0,1-3.765,1.475c-3.066,0-5.045-2.021-5.045-4.75a4.735,4.735,0,0,1,.336-1.827,4.682,4.682,0,0,1,2.588-2.58,4.6,4.6,0,0,1,1.844-.343c3.043,0,4.763,2.3,4.613,5.485h-7.193a2.588,2.588,0,0,0,2.829,2.169Zm2.185-3.685a2.3,2.3,0,0,0-2.425-2.147,2.459,2.459,0,0,0-2.594,2.147Zm-49.406,3.581,5.531-5.584h-5.4v-1.749h7.97v1.786l-5.536,5.583h5.613v1.751h-8.179Zm14.392.1a3.6,3.6,0,0,0,.691-.054,3.439,3.439,0,0,0,.672-.185,3.661,3.661,0,0,0,.622-.306,3.556,3.556,0,0,0,.545-.429l1.257,1.349a4.959,4.959,0,0,1-3.769,1.475,4.676,4.676,0,0,1-5.04-4.75A4.63,4.63,0,0,1,798.12,297a4.658,4.658,0,0,1,3.4-1.371c3.043,0,4.769,2.3,4.615,5.485h-7.189a2.587,2.587,0,0,0,2.829,2.169Zm2.189-3.685a2.3,2.3,0,0,0-2.424-2.147,2.456,2.456,0,0,0-2.594,2.147Zm14.124.785a4.579,4.579,0,0,1,4.613-4.744,3.93,3.93,0,0,1,.863.08,4.083,4.083,0,0,1,.822.266,4,4,0,0,1,.749.433,4.046,4.046,0,0,1,.632.586v-5.38h1.958v13.318h-1.958v-1.254a3.956,3.956,0,0,1-1.376,1.069,4.045,4.045,0,0,1-.83.28,3.758,3.758,0,0,1-.877.09,4.613,4.613,0,0,1-4.591-4.744Zm7.788-.018a2.9,2.9,0,0,0-1.857-2.621,2.935,2.935,0,0,0-3.152.681,2.881,2.881,0,0,0-.595,3.148,2.921,2.921,0,0,0,5.6-1.209ZM840.24,303h.005l-.005.005Zm1.772-.906a2.443,2.443,0,0,0,.427.564,2.656,2.656,0,0,0,.567.429,2.586,2.586,0,0,0,.659.261,2.489,2.489,0,0,0,.708.077c1.108,0,1.681-.564,1.681-1.2,0-.731-1.067-.893-2.234-1.133-1.562-.329-3.193-.839-3.193-2.715,0-1.443,1.385-2.778,3.56-2.76a4.239,4.239,0,0,1,3.715,1.768l-1.645.893a2.471,2.471,0,0,0-.4-.451,2.457,2.457,0,0,0-1.067-.537,2.754,2.754,0,0,0-.6-.054c-1.049,0-1.585.514-1.585,1.1,0,.659.845.839,2.175,1.132,1.517.33,3.229.821,3.229,2.719,0,1.259-1.108,2.955-3.729,2.937a4.332,4.332,0,0,1-4.037-2.111Zm11.308-1.2-1.549,1.679v2.367h-1.958V291.617h1.958v8.724l4.151-4.525h2.384l-3.6,3.907,3.692,5.218h-2.211l-2.862-4.05Zm-41.15-5.254h0Zm0,0a3.98,3.98,0,0,1,4.269,3.977v5.332h-1.981v-5.084c0-1.5-.735-2.391-2.215-2.391a2.175,2.175,0,0,0-2.348,2.391v5.084H807.9v-5.332A3.975,3.975,0,0,1,812.166,295.637Z" transform="translate(-787.383 -254.745)" fill="#03363d" fill-rule="evenodd"/>
    </g>
    <g id="Groupe_5705" data-name="Groupe 5705" transform="translate(47.539 379.258)">
      <rect id="Rectangle_5751" data-name="Rectangle 5751" width="127" height="127" rx="12.265" transform="translate(0.058 -0.258)" fill="#fff"/>
    </g>
    <g id="Groupe_5706" data-name="Groupe 5706" transform="translate(79.007 420.616)" clip-path="url(#clip-path-8)">
      <path id="Tracé_13312" data-name="Tracé 13312" d="M816.965,402.921a11.075,11.075,0,0,1,17.681,2.315,13.549,13.549,0,0,1,2.681-.868,13.524,13.524,0,0,1,1.394-.219,13.372,13.372,0,0,1,1.41-.072A13.595,13.595,0,1,1,837.46,431a9.952,9.952,0,0,1-12.99,4.053,11.336,11.336,0,0,1-21.025-.508c-.177.037-.355.07-.534.1s-.358.051-.539.07-.36.033-.542.042-.361.014-.543.014a10.553,10.553,0,0,1-5.249-19.675,12.021,12.021,0,0,1-.942-3.584,11.8,11.8,0,0,1-.062-1.237,12.234,12.234,0,0,1,21.932-7.354Z" transform="translate(-790.787 -398.149)" fill="#00a1e0" fill-rule="evenodd"/>
      <path id="Tracé_13313" data-name="Tracé 13313" d="M799.413,420.024l.255-.7a.1.1,0,0,1,.169-.058c.071.041.123.079.213.132a3.065,3.065,0,0,0,1.662.475c.561,0,.91-.295.91-.693v-.021c0-.433-.537-.6-1.157-.786l-.137-.043c-.851-.241-1.761-.59-1.761-1.66v-.022a1.8,1.8,0,0,1,2.005-1.725h.13a3.685,3.685,0,0,1,1.849.493.12.12,0,0,1,.062.145l-.262.7c-.046.12-.171.041-.171.041a3.779,3.779,0,0,0-.39-.174,3.877,3.877,0,0,0-.407-.129,3.744,3.744,0,0,0-.417-.081,3.833,3.833,0,0,0-.426-.034c-.5,0-.823.264-.823.622v.023c0,.417.552.6,1.192.8l.11.034c.848.267,1.754.636,1.754,1.651v.021c0,1.1-.8,1.779-2.092,1.779a3.844,3.844,0,0,1-1.88-.435,4,4,0,0,1-.36-.216c-.012-.018-.066-.039-.027-.142Zm19.145-.7a.109.109,0,0,1,.169-.058c.071.042.123.079.213.132a3.069,3.069,0,0,0,1.664.475c.559,0,.907-.295.907-.693v-.021c0-.433-.536-.6-1.156-.786l-.137-.043c-.853-.241-1.762-.59-1.762-1.66v-.022a1.8,1.8,0,0,1,2.006-1.725h.128a3.691,3.691,0,0,1,1.851.493.123.123,0,0,1,.062.145c-.024.062-.239.636-.262.7-.048.12-.171.041-.171.041a3.784,3.784,0,0,0-.39-.174,3.864,3.864,0,0,0-.406-.129,3.8,3.8,0,0,0-.844-.115c-.5,0-.823.264-.823.622v.023c0,.417.55.6,1.191.8l.111.034c.848.267,1.753.636,1.753,1.651v.021c0,1.1-.8,1.779-2.092,1.779a3.844,3.844,0,0,1-1.88-.435,4.01,4.01,0,0,1-.36-.216c-.012-.018-.067-.039-.026-.142Zm13.719-2.6a4.279,4.279,0,0,1,0,2.3,2.573,2.573,0,0,1-.086.249c-.034.081-.07.162-.111.24s-.087.154-.135.228a2.421,2.421,0,0,1-.157.212,2.264,2.264,0,0,1-.379.356,2.467,2.467,0,0,1-.217.145c-.076.043-.153.083-.232.119a3.075,3.075,0,0,1-2.309,0c-.079-.036-.156-.076-.231-.119a2.51,2.51,0,0,1-.218-.145,2.208,2.208,0,0,1-.378-.356,2.229,2.229,0,0,1-.159-.212,2.589,2.589,0,0,1-.134-.228,2.362,2.362,0,0,1-.111-.24c-.033-.081-.061-.165-.087-.249s-.051-.187-.071-.282-.036-.191-.05-.287-.023-.192-.03-.289-.008-.193-.008-.29a4.05,4.05,0,0,1,.159-1.15,2.591,2.591,0,0,1,.489-.93,2.187,2.187,0,0,1,.18-.189,2.359,2.359,0,0,1,.2-.169,2.315,2.315,0,0,1,.218-.146,2.427,2.427,0,0,1,.231-.121,3.01,3.01,0,0,1,2.309,0,2.372,2.372,0,0,1,.828.625A2.56,2.56,0,0,1,832.276,416.723Zm-1.422-.3a1.164,1.164,0,0,0-1.05-.5,1.149,1.149,0,0,0-1.044.5,3.264,3.264,0,0,0,0,2.9,1.143,1.143,0,0,0,1.043.509,1.163,1.163,0,0,0,1.05-.509,2.635,2.635,0,0,0,.345-1.455A2.594,2.594,0,0,0,830.854,416.424Zm10.267,3.247.264.726a.1.1,0,0,1-.043.128,4.464,4.464,0,0,1-1.525.269,2.732,2.732,0,0,1-2.127-.8,3.07,3.07,0,0,1-.717-2.13,3.651,3.651,0,0,1,.177-1.153,2.616,2.616,0,0,1,.523-.93,2.452,2.452,0,0,1,.19-.19,2.276,2.276,0,0,1,.209-.169,2.433,2.433,0,0,1,.227-.146,2.319,2.319,0,0,1,.241-.119,2.945,2.945,0,0,1,1.2-.229,5.521,5.521,0,0,1,.808.053,4.338,4.338,0,0,1,.719.181.1.1,0,0,1,.068.127c-.1.285-.172.471-.266.731-.041.11-.125.074-.125.074a3.615,3.615,0,0,0-1.138-.162,1.412,1.412,0,0,0-1.2.521,2.268,2.268,0,0,0-.414,1.411,2.036,2.036,0,0,0,.464,1.463,1.644,1.644,0,0,0,1.232.457,3.945,3.945,0,0,0,.591-.041,2.518,2.518,0,0,0,.5-.144A.1.1,0,0,1,841.122,419.671Zm5.619-1.59a.106.106,0,0,1-.106.094l-3.646,0a1.708,1.708,0,0,0,.424,1.205,1.74,1.74,0,0,0,1.249.426,3.539,3.539,0,0,0,1.5-.267.106.106,0,0,1,.137.062l.238.664c.048.112.01.151-.032.173a3.822,3.822,0,0,1-1.836.361,3.644,3.644,0,0,1-1.323-.212,2.463,2.463,0,0,1-.255-.11,2.358,2.358,0,0,1-.24-.138,2.436,2.436,0,0,1-.423-.355,2.478,2.478,0,0,1-.171-.207,2.4,2.4,0,0,1-.146-.224,2.514,2.514,0,0,1-.12-.239,2.4,2.4,0,0,1-.092-.251c-.029-.093-.053-.188-.074-.283s-.038-.192-.052-.289-.024-.193-.031-.291-.01-.2-.008-.294a3.994,3.994,0,0,1,.161-1.156,2.618,2.618,0,0,1,.492-.941,2.416,2.416,0,0,1,.183-.193,2.235,2.235,0,0,1,.2-.171,2.07,2.07,0,0,1,.221-.148,2.362,2.362,0,0,1,.235-.124,2.868,2.868,0,0,1,1.2-.233,2.661,2.661,0,0,1,1.043.21,2.153,2.153,0,0,1,.694.525,2.243,2.243,0,0,1,.466.848A3.857,3.857,0,0,1,846.741,418.081Zm-1.134-.8a1.8,1.8,0,0,0-.242-.854,1.134,1.134,0,0,0-1.022-.526,1.166,1.166,0,0,0-1.044.526,2.119,2.119,0,0,0-.294.854Zm-28.067.8a.107.107,0,0,1-.106.094l-3.646,0a1.708,1.708,0,0,0,.424,1.205,1.739,1.739,0,0,0,1.248.426,3.546,3.546,0,0,0,1.5-.267.106.106,0,0,1,.137.062l.238.664c.048.112.01.151-.031.173a3.839,3.839,0,0,1-1.837.361,3.64,3.64,0,0,1-1.323-.212,2.57,2.57,0,0,1-.255-.11c-.082-.042-.163-.089-.24-.138a2.625,2.625,0,0,1-.222-.166,2.434,2.434,0,0,1-.2-.189,2.257,2.257,0,0,1-.169-.207,2.4,2.4,0,0,1-.147-.224,2.506,2.506,0,0,1-.119-.239,2.4,2.4,0,0,1-.092-.251c-.029-.093-.054-.188-.075-.283s-.038-.192-.052-.288-.024-.194-.031-.292-.01-.2-.008-.294a4.068,4.068,0,0,1,.16-1.156,2.625,2.625,0,0,1,.087-.253c.034-.083.071-.164.112-.243a2.661,2.661,0,0,1,.136-.23,2.487,2.487,0,0,1,.16-.216,2.239,2.239,0,0,1,.182-.193,2.4,2.4,0,0,1,.2-.171,2.352,2.352,0,0,1,.22-.148,2.642,2.642,0,0,1,.236-.124,2.875,2.875,0,0,1,1.2-.233c.089,0,.179,0,.267.013s.177.022.265.04.174.04.26.067a2.651,2.651,0,0,1,.251.091,2.138,2.138,0,0,1,.693.525,2.242,2.242,0,0,1,.466.848A3.858,3.858,0,0,1,817.54,418.081Zm-1.134-.8a1.815,1.815,0,0,0-.242-.854,1.132,1.132,0,0,0-1.022-.526,1.162,1.162,0,0,0-1.043.526,2.105,2.105,0,0,0-.3.854Zm-8.43-.1v-.154c0-.483-.1-.711-.3-.863a1.486,1.486,0,0,0-.9-.235,3.739,3.739,0,0,0-1.589.368.651.651,0,0,1-.059.031.093.093,0,0,1-.12-.059l-.258-.689a.113.113,0,0,1,.033-.145,3.529,3.529,0,0,1,1.123-.408c.08-.014.162-.026.243-.037s.163-.02.244-.029.164-.013.245-.017.164-.006.245-.007a2.5,2.5,0,0,1,1.675.5,2.027,2.027,0,0,1,.579,1.6l0,3.315a.112.112,0,0,1-.084.117s-.133.037-.254.065-.561.116-.92.176c-.091.015-.183.029-.275.04s-.185.021-.277.029-.185.014-.278.017-.185.006-.278.006a4.367,4.367,0,0,1-.966-.1q-.1-.021-.2-.051a1.959,1.959,0,0,1-.19-.072,1.933,1.933,0,0,1-.183-.09,1.794,1.794,0,0,1-.172-.108,1.42,1.42,0,0,1-.145-.118,1.559,1.559,0,0,1-.129-.135,1.537,1.537,0,0,1-.111-.15,1.643,1.643,0,0,1-.091-.163,1.869,1.869,0,0,1-.168-.827,1.691,1.691,0,0,1,.725-1.434,1.922,1.922,0,0,1,.177-.112c.061-.035.124-.068.187-.1s.129-.056.194-.079.133-.044.2-.062a3.519,3.519,0,0,1,.9-.114c.229,0,.42.005.569.017C807.375,417.105,807.662,417.13,807.976,417.176Zm-.984,2.687a7.544,7.544,0,0,0,.985-.13v-1.648a7.608,7.608,0,0,0-.991-.083,1.656,1.656,0,0,0-1.056.262.794.794,0,0,0-.325.7.853.853,0,0,0,.111.472.686.686,0,0,0,.209.214A1.643,1.643,0,0,0,806.993,419.862ZM836.508,416a.124.124,0,0,1-.133.1,2.108,2.108,0,0,0-.4-.048,1.763,1.763,0,0,0-.488.069,1.013,1.013,0,0,0-.124.045,1.145,1.145,0,0,0-.118.061.943.943,0,0,0-.109.075.852.852,0,0,0-.1.087,1.322,1.322,0,0,0-.32.534,3.145,3.145,0,0,0-.12.95v2.7a.112.112,0,0,1-.008.042.119.119,0,0,1-.024.036.1.1,0,0,1-.036.023.1.1,0,0,1-.042.009h-.957a.12.12,0,0,1-.079-.032.118.118,0,0,1-.024-.036.116.116,0,0,1-.008-.042v-5.4a.105.105,0,0,1,.106-.109h.934a.105.105,0,0,1,.106.109v.442a1.644,1.644,0,0,1,.617-.451,1.81,1.81,0,0,1,.939-.15,3.19,3.19,0,0,1,.612.1.111.111,0,0,1,.033.022.1.1,0,0,1,.022.032.117.117,0,0,1,.007.038.1.1,0,0,1-.008.038C836.749,415.337,836.572,415.833,836.508,416Zm-8.649-3.139-.28.761c-.024.058-.039.092-.157.056-.04-.012-.079-.023-.119-.033s-.081-.017-.121-.023-.081-.011-.123-.014-.082-.005-.124-.005a1.248,1.248,0,0,0-.391.057.829.829,0,0,0-.085.033.711.711,0,0,0-.079.042.619.619,0,0,0-.074.052.751.751,0,0,0-.068.06c-.029.027-.055.056-.08.086s-.048.061-.07.094a.952.952,0,0,0-.058.1,1.063,1.063,0,0,0-.048.107,5.081,5.081,0,0,0-.193.818h1.165c.1,0,.13.045.12.116l-.136.753a.123.123,0,0,1-.123.106h-1.2l-.821,4.619c-.018.1-.038.207-.06.31s-.047.2-.074.306-.055.2-.087.3-.064.2-.1.3a2.365,2.365,0,0,1-.474.811,1.592,1.592,0,0,1-.146.148,1.9,1.9,0,0,1-.162.128,1.708,1.708,0,0,1-.367.191,2.648,2.648,0,0,1-.895.139,2.172,2.172,0,0,1-.534-.052l-.084-.02-.085-.023q-.041-.011-.082-.025c-.029-.008-.055-.018-.082-.027a.108.108,0,0,1-.055-.146c.024-.072.241-.659.269-.736a.1.1,0,0,1,.132-.057.847.847,0,0,0,.2.062,1.7,1.7,0,0,0,.293.032,1.348,1.348,0,0,0,.429-.061.649.649,0,0,0,.333-.255,1.84,1.84,0,0,0,.256-.516,5.732,5.732,0,0,0,.218-.894l.818-4.534h-.805c-.1,0-.13-.045-.118-.117l.134-.754a.124.124,0,0,1,.124-.1h.827l.044-.245a2.984,2.984,0,0,1,.733-1.644,2.093,2.093,0,0,1,1.543-.55,2.863,2.863,0,0,1,.5.038,3.02,3.02,0,0,1,.36.086A.1.1,0,0,1,827.859,412.859Zm-16.461,7.82h-.967a.1.1,0,0,1-.1-.11v-7.734a.1.1,0,0,1,.1-.109h.967a.1.1,0,0,1,.1.109v7.733A.1.1,0,0,1,811.4,420.679Z" transform="translate(-790.301 -397.333)" fill="#fff" fill-rule="evenodd"/>
    </g>
    <g id="Groupe_5707" data-name="Groupe 5707" transform="translate(491.239 49.652)">
      <rect id="Rectangle_5753" data-name="Rectangle 5753" width="126" height="126" rx="12.265" transform="translate(0.358 0.348)" fill="#fff"/>
    </g>
    <path id="Tracé_13314" data-name="Tracé 13314" d="M1267.041,100.214c0,12.9-8.325,21.728-20.231,21.728-5.652,0-10.321-2.332-12.064-5.246l.085,3v18.479h-12.149V90.39c0-.665-.169-.834-.919-.834H1217.6V79.4h10.152c4.659,0,5.832,4,6.159,5.746,1.838-3.079,6.656-6.658,13.491-6.658C1259.139,78.486,1267.041,87.224,1267.041,100.214Zm-12.4.083c0-6.91-4.49-11.653-10.152-11.653-4.659,0-9.909,3.079-9.909,11.739,0,5.659,3.159,11.57,9.74,11.57C1249.145,111.949,1254.638,108.452,1254.638,100.3Z" transform="translate(-687.695 4.429)" fill="#017737"/>
    <g id="Groupe_5708" data-name="Groupe 5708" transform="translate(491.239 197.552)">
      <rect id="Rectangle_5754" data-name="Rectangle 5754" width="126" height="126" rx="12.265" transform="translate(0.358 0.448)" fill="#fff"/>
    </g>
    <g id="Groupe_5709" data-name="Groupe 5709" transform="translate(528.098 229.919)" clip-path="url(#clip-path-9)">
      <path id="Tracé_13315" data-name="Tracé 13315" d="M1263.048,229.7a.6.6,0,0,0-.539-.5c-.222-.018-4.923-.367-4.923-.367s-3.275-3.24-3.623-3.6a1.506,1.506,0,0,0-1.342-.17c-.032.012-.708.22-1.828.564-1.088-3.138-3.011-6.021-6.4-6.021-.095,0-.19,0-.285.01a4.113,4.113,0,0,0-3.19-1.827c-7.892,0-11.663,9.858-12.846,14.867-3.064.95-5.25,1.624-5.525,1.711-1.711.537-1.764.591-2,2.2-.169,1.22-4.648,35.828-4.648,35.828l34.915,6.533,18.91-4.087S1263.091,230.005,1263.048,229.7Zm-14.177-3.471-2.958.914V226.5a14.516,14.516,0,0,0-.7-4.763C1246.959,221.958,1248.121,223.942,1248.871,226.226Zm-5.821-4.1a14.86,14.86,0,0,1,.792,5.312v.341l-6.1,1.888C1238.92,225.138,1241.117,222.952,1243.05,222.126Zm-2.345-2.217a1.76,1.76,0,0,1,1,.341c-2.525,1.188-5.24,4.183-6.381,10.165l-4.828,1.492C1231.842,227.345,1235.032,219.909,1240.7,219.909Z" transform="translate(-1215.889 -217.629)" fill="#95bf46"/>
      <path id="Tracé_13316" data-name="Tracé 13316" d="M1260.645,228.816c-.222-.018-4.923-.367-4.923-.367s-3.275-3.24-3.623-3.6a.9.9,0,0,0-.507-.231l-2.641,53.929,18.91-4.087s-6.634-44.841-6.677-45.149A.6.6,0,0,0,1260.645,228.816Z" transform="translate(-1214.025 -217.244)" fill="#5e8e3e"/>
      <path id="Tracé_13317" data-name="Tracé 13317" d="M1243.951,238.523l-2.335,6.93a10.705,10.705,0,0,0-4.543-1.089c-3.676,0-3.856,2.3-3.856,2.882,0,3.165,8.251,4.378,8.251,11.791,0,5.833-3.7,9.589-8.694,9.589a12.1,12.1,0,0,1-9.054-3.726l1.606-5.295s3.148,2.7,5.81,2.7a2.342,2.342,0,0,0,2.44-2.364c0-4.129-6.782-4.312-6.782-11.1,0-5.71,4.11-11.235,12.392-11.235A10.181,10.181,0,0,1,1243.951,238.523Z" transform="translate(-1215.448 -216.511)" fill="#fff"/>
    </g>
    <g id="Groupe_5710" data-name="Groupe 5710" transform="translate(491.239 345.452)">
      <rect id="Rectangle_5756" data-name="Rectangle 5756" width="126" height="127" rx="12.265" transform="translate(0.358 -0.452)" fill="#fff"/>
    </g>
    <g id="Groupe_5711" data-name="Groupe 5711" transform="translate(525.404 379.617)" clip-path="url(#clip-path-2)">
      <path id="Tracé_13318" data-name="Tracé 13318" d="M1225.839,394.511a6.074,6.074,0,1,1-6.074-6.073h6.074Zm3.032,0a6.074,6.074,0,0,1,12.149,0V409.7a6.074,6.074,0,0,1-12.149,0Z" transform="translate(-1213.32 -357.698)" fill="#e01e5a"/>
      <path id="Tracé_13319" data-name="Tracé 13319" d="M1234.948,371.75a6.074,6.074,0,1,1,6.074-6.073v6.073Zm0,3.084a6.074,6.074,0,1,1,0,12.148h-15.234a6.074,6.074,0,0,1,0-12.148Z" transform="translate(-1213.323 -359.325)" fill="#36c5f0"/>
      <path id="Tracé_13320" data-name="Tracé 13320" d="M1257.671,380.907a6.069,6.069,0,1,1,6.064,6.074h-6.064Zm-3.042,0a6.074,6.074,0,0,1-12.149,0V365.676a6.074,6.074,0,0,1,12.149,0Z" transform="translate(-1211.696 -359.325)" fill="#2eb67d"/>
      <path id="Tracé_13321" data-name="Tracé 13321" d="M1248.554,403.623a6.074,6.074,0,1,1-6.074,6.074v-6.074Zm0-3.037a6.074,6.074,0,1,1,0-12.148h15.234a6.074,6.074,0,1,1,0,12.148Z" transform="translate(-1211.696 -357.698)" fill="#ecb22e"/>
    </g>
  </g>
</svg>
