<svg xmlns="http://www.w3.org/2000/svg" width="24.756" height="24.756" viewBox="0 0 24.756 24.756">
  <path id="Vector" d="M16.187,17.456,16,18.39a.952.952,0,0,0,1.038-.508ZM7.3,8.569l-.426-.852a.952.952,0,0,0-.508,1.038Zm.449-.225.426.852h0ZM8.971,5.131l.884-.354h0ZM7.938,2.548,7.054,2.9h0Zm14.269,14.27-.354.884h0Zm-2.582-1.033.354-.884h0Zm-3.214,1.222.852.426h0Zm1.362-5.9a.952.952,0,1,0,1.9,0Zm.566-1.943.88-.364h0ZM15.591,6.417l.364-.88h0ZM13.648,5.078a.952.952,0,0,0,0,1.9Zm9.2,6.03a.952.952,0,1,0,1.9,0Zm.179-3.887.88-.364h0Zm-5.5-5.5L17.9.846h0ZM13.648,0a.952.952,0,0,0,0,1.9Zm9.2,19.175v2.09h1.9v-2.09ZM3.491,1.9h2.09V0H3.491Zm12.7,15.552c.187-.934.187-.934.187-.934h0l-.018,0-.085-.02c-.078-.019-.2-.05-.351-.095a11.423,11.423,0,0,1-1.262-.458,11.255,11.255,0,0,1-3.51-2.337L9.8,14.956A13.161,13.161,0,0,0,13.907,17.7a13.286,13.286,0,0,0,1.475.534c.184.054.333.093.438.118l.125.029.037.008.011,0H16s0,0,.187-.934Zm-5.04-3.847A11.257,11.257,0,0,1,8.81,10.1a11.413,11.413,0,0,1-.458-1.262c-.045-.153-.076-.272-.095-.351-.009-.039-.016-.068-.02-.085l0-.018v0h0L7.3,8.569l-.934.187h0v.006l0,.011.008.037c.007.03.016.072.029.125.026.105.064.254.118.438a13.315,13.315,0,0,0,.534,1.475A13.159,13.159,0,0,0,9.8,14.956ZM7.726,9.421,8.175,9.2l-.852-1.7-.449.225Zm2.13-4.644L8.822,2.195,7.054,2.9,8.087,5.484ZM22.561,15.934,19.979,14.9l-.707,1.768L21.854,17.7Zm-7,.647-.225.449,1.7.852.225-.449Zm4.419-1.68a3.491,3.491,0,0,0-4.419,1.68l1.7.852a1.587,1.587,0,0,1,2.009-.764ZM8.175,9.2a3.491,3.491,0,0,0,1.68-4.419l-1.768.707a1.587,1.587,0,0,1-.764,2.009ZM5.581,1.9a1.587,1.587,0,0,1,1.473,1l1.768-.707A3.491,3.491,0,0,0,5.581,0ZM24.756,19.175a3.491,3.491,0,0,0-2.195-3.242L21.854,17.7a1.587,1.587,0,0,1,1,1.473Zm-3.491,3.676A19.361,19.361,0,0,1,1.9,3.491H0A21.265,21.265,0,0,0,21.265,24.756Zm0,1.9a3.491,3.491,0,0,0,3.491-3.491h-1.9a1.587,1.587,0,0,1-1.587,1.587ZM1.9,3.491A1.587,1.587,0,0,1,3.491,1.9V0A3.491,3.491,0,0,0,0,3.491Zm17.774,7.617A6.031,6.031,0,0,0,19.219,8.8l-1.759.729a4.127,4.127,0,0,1,.314,1.579ZM19.219,8.8a6.032,6.032,0,0,0-1.307-1.956L16.565,8.191a4.125,4.125,0,0,1,.894,1.339ZM17.912,6.844a6.031,6.031,0,0,0-1.956-1.307L15.226,7.3a4.126,4.126,0,0,1,1.339.894ZM15.955,5.537a6.029,6.029,0,0,0-2.308-.459v1.9a4.126,4.126,0,0,1,1.579.314Zm8.8,5.571a11.107,11.107,0,0,0-.846-4.251l-1.759.729a9.2,9.2,0,0,1,.7,3.522ZM23.91,6.858a11.108,11.108,0,0,0-2.408-3.6L20.156,4.6a9.2,9.2,0,0,1,2,2.986ZM21.5,3.254A11.108,11.108,0,0,0,17.9.846L17.17,2.6a9.2,9.2,0,0,1,2.986,2ZM17.9.846A11.108,11.108,0,0,0,13.648,0V1.9a9.2,9.2,0,0,1,3.522.7Z" fill="#fff"/>
</svg>
