<svg xmlns="http://www.w3.org/2000/svg" width="96" height="96" viewBox="0 0 96 96">
  <g id="Groupe_6580" data-name="Groupe 6580" transform="translate(-1046.751 -3059)">
    <rect id="Rectangle_5053" data-name="Rectangle 5053" width="96" height="96" rx="48" transform="translate(1046.751 3059)" fill="#3272d3"/>
    <path id="Tracé_13208" data-name="Tracé 13208" d="M908.333,355.333h-4.666a2.333,2.333,0,1,0,0,4.667H906v28h-2.333a2.333,2.333,0,0,0,0,4.667h4.666a2.335,2.335,0,0,0,2.334-2.334V357.667a2.335,2.335,0,0,0-2.334-2.334Zm-16.8,7.934a2.333,2.333,0,0,0-3.733,2.8l4.2,5.6H873.333a2.333,2.333,0,1,0,0,4.666H892.21l-4.013,5.694a2.334,2.334,0,0,0,3.8,2.706l6.58-9.333a2.335,2.335,0,0,0,0-2.753Z" transform="translate(202.751 2733)" fill="#fff"/>
  </g>
</svg>
