<svg id="Groupe_5610" data-name="Groupe 5610" xmlns="http://www.w3.org/2000/svg" width="48.084" height="68.219" viewBox="0 0 48.084 68.219">
  <g id="Groupe_5596" data-name="Groupe 5596" transform="translate(17.475 64.45)">
    <path id="Tracé_13189" data-name="Tracé 13189" d="M550.324,264.382" transform="translate(-550.324 -264.382)" fill="#0a55c6"/>
  </g>
  <g id="Groupe_5597" data-name="Groupe 5597" transform="translate(0 0)">
    <path id="Tracé_13190" data-name="Tracé 13190" d="M544.7,238.552H524.824v-7.538H544.7a20.7,20.7,0,0,0,20.673-20.673V170.333h7.538v40.008A28.243,28.243,0,0,1,544.7,238.552Z" transform="translate(-524.824 -170.333)" fill="#0a55c6"/>
  </g>
  <rect id="Rectangle_3365" data-name="Rectangle 3365" width="7.538" height="43.776" transform="translate(11.876 13.477)" fill="#0a55c6"/>
  <g id="Groupe_5598" data-name="Groupe 5598" transform="translate(0 5.939)">
    <path id="Tracé_13191" data-name="Tracé 13191" d="M533.276,215.321a28.123,28.123,0,0,0-8.452,20.11h7.538a20.614,20.614,0,0,1,.914-6.081Z" transform="translate(-524.824 -190.431)" fill="#0a55c6"/>
    <path id="Tracé_13192" data-name="Tracé 13192" d="M570.272,179v44.6a17.291,17.291,0,0,1-7.538,5.6V179Z" transform="translate(-536.755 -179)" fill="#0a55c6"/>
  </g>
</svg>
