<svg xmlns="http://www.w3.org/2000/svg" width="65.499" height="65.026" viewBox="0 0 65.499 65.026">
  <g id="ready-stock" transform="translate(-53.333 -45.67)">
    <path id="Tracé_13200" data-name="Tracé 13200" d="M192.037,85.9,164.271,98.2l12.763,5.657L204.8,91.555Z" transform="translate(-93.471 -33.894)" fill="#21a7e0"/>
    <path id="Tracé_13201" data-name="Tracé 13201" d="M79.847,62.473l27.767-12.306-9.5-4.209a3.359,3.359,0,0,0-2.722,0l-26.4,11.7Z" transform="translate(-13.191)" fill="#21a7e0"/>
    <path id="Tracé_13202" data-name="Tracé 13202" d="M81.884,150.874,53.333,138.22v33.034a3.359,3.359,0,0,0,2,3.07l26.553,11.768Z" transform="translate(0 -77.978)" fill="#21a7e0"/>
    <path id="Tracé_13203" data-name="Tracé 13203" d="M256,362.667V375.2l3.6-1.595A18.372,18.372,0,0,1,256,362.667Z" transform="translate(-170.757 -267.086)" fill="#21a7e0"/>
    <path id="Tracé_13204" data-name="Tracé 13204" d="M274.474,155.085a18.36,18.36,0,0,1,10.077,3V138.22L256,150.874v22.685A18.5,18.5,0,0,1,274.474,155.085Z" transform="translate(-170.757 -77.978)" fill="#21a7e0"/>
    <path id="Tracé_13205" data-name="Tracé 13205" d="M292.448,266.667a15.115,15.115,0,1,0,15.115,15.115A15.115,15.115,0,0,0,292.448,266.667Zm7.905,12.944-8.4,8.4a1.679,1.679,0,0,1-2.375,0l-4.2-4.2a1.679,1.679,0,1,1,2.375-2.375l3.011,3.011,7.21-7.209a1.679,1.679,0,1,1,2.375,2.375Z" transform="translate(-188.731 -186.201)" fill="#21a7e0"/>
  </g>
</svg>
