<svg xmlns="http://www.w3.org/2000/svg" width="64.407" height="59.039" viewBox="0 0 64.407 59.039">
  <g id="wallet" transform="translate(0 -1)">
    <path id="Tracé_13193" data-name="Tracé 13193" d="M33.51,11.758,27.813,2a2.011,2.011,0,0,0-2.772-.714L7.624,11.734Z" transform="translate(12.836 0)" fill="#06a99e"/>
    <path id="Tracé_13194" data-name="Tracé 13194" d="M8.051,12.735a2.684,2.684,0,1,1,0-5.367h9.044L26.058,2H8.051A8.044,8.044,0,0,0,.134,8.709,2.705,2.705,0,0,0,0,9.38V50.305a8.075,8.075,0,0,0,8.051,8.051H53.673a5.383,5.383,0,0,0,5.367-5.367V47.622H52.331a12.076,12.076,0,1,1,0-24.153H59.04V18.1a5.383,5.383,0,0,0-5.367-5.367ZM50.989,7.367a5.358,5.358,0,0,0-4.643-5.314l4.643,8Z" transform="translate(0 1.683)" fill="#06a99e"/>
    <path id="Tracé_13195" data-name="Tracé 13195" d="M34.615,11.5H24.551a8.051,8.051,0,0,0,0,16.1H34.615a2.013,2.013,0,0,0,2.013-2.013V13.513A2.013,2.013,0,0,0,34.615,11.5ZM24.551,22.235a2.684,2.684,0,1,1,2.684-2.684A2.685,2.685,0,0,1,24.551,22.235Z" transform="translate(27.78 17.678)" fill="#06a99e"/>
  </g>
</svg>
