<svg xmlns="http://www.w3.org/2000/svg" width="26.725" height="29.466" viewBox="0 0 26.725 29.466">
  <path id="Vector" d="M24.669,13.21c0,3.02-1.761,6.6-4.19,9.474a18.328,18.328,0,0,1-3.8,3.462,6.5,6.5,0,0,1-3.314,1.264v2.056a8.466,8.466,0,0,0,4.443-1.6,20.37,20.37,0,0,0,4.244-3.853c2.582-3.056,4.675-7.093,4.675-10.8ZM13.362,27.41a6.5,6.5,0,0,1-3.314-1.264,18.329,18.329,0,0,1-3.8-3.462c-2.429-2.875-4.19-6.453-4.19-9.474H0c0,3.708,2.094,7.744,4.675,10.8a20.372,20.372,0,0,0,4.244,3.853,8.466,8.466,0,0,0,4.443,1.6ZM2.056,13.21A11.231,11.231,0,0,1,13.362,2.056V0A13.287,13.287,0,0,0,0,13.21ZM13.362,2.056A11.231,11.231,0,0,1,24.669,13.21h2.056A13.287,13.287,0,0,0,13.362,0Zm3.084,11.307a3.084,3.084,0,0,1-3.084,3.084V18.5A5.139,5.139,0,0,0,18.5,13.362Zm-3.084,3.084a3.084,3.084,0,0,1-3.084-3.084H8.223A5.139,5.139,0,0,0,13.362,18.5Zm-3.084-3.084a3.084,3.084,0,0,1,3.084-3.084V8.223a5.139,5.139,0,0,0-5.139,5.139Zm3.084-3.084a3.084,3.084,0,0,1,3.084,3.084H18.5a5.139,5.139,0,0,0-5.139-5.139Z" fill="#fff"/>
</svg>
