<svg xmlns="http://www.w3.org/2000/svg" width="26.725" height="24.239" viewBox="0 0 26.725 24.239">
  <path id="Vector" d="M6.421,6.372A.932.932,0,0,0,5.387,7.923ZM10.6,10.281l.517-.776h0Zm5.516,0L15.6,9.505h0Zm1.127.369A.932.932,0,0,0,16.213,9.1ZM15.6,1.865A.932.932,0,0,0,15.6,0Zm11.122,9.257a.932.932,0,1,0-1.865,0ZM24.86,4.661a2.8,2.8,0,0,1-2.8,2.8V9.323a4.661,4.661,0,0,0,4.661-4.661Zm-2.8,2.8a2.8,2.8,0,0,1-2.8-2.8H17.4a4.661,4.661,0,0,0,4.661,4.661Zm-2.8-2.8a2.8,2.8,0,0,1,2.8-2.8V0A4.661,4.661,0,0,0,17.4,4.661Zm2.8-2.8a2.8,2.8,0,0,1,2.8,2.8h1.865A4.661,4.661,0,0,0,22.063,0ZM5.387,7.923l4.7,3.133,1.034-1.551-4.7-3.133Zm4.7,3.133a5.9,5.9,0,0,0,6.55,0L15.6,9.505a4.04,4.04,0,0,1-4.482,0Zm6.55,0,.61-.406L16.213,9.1l-.609.406ZM20.82,22.374H5.9v1.865H20.82ZM1.865,18.335V5.9H0v12.43Zm4.04,4.04a4.04,4.04,0,0,1-4.04-4.04H0a5.9,5.9,0,0,0,5.9,5.9Zm18.956-4.04a4.04,4.04,0,0,1-4.04,4.04v1.865a5.9,5.9,0,0,0,5.9-5.9ZM5.9,0A5.9,5.9,0,0,0,0,5.9H1.865A4.04,4.04,0,0,1,5.9,1.865Zm0,1.865h9.7V0H5.9ZM24.86,11.122v7.213h1.865V11.122Z" fill="#2274b3"/>
</svg>
