<svg id="Groupe_49" data-name="Groupe 49" xmlns="http://www.w3.org/2000/svg" width="201.128" height="29.298" viewBox="0 0 201.128 29.298">
  <g id="Groupe_46" data-name="Groupe 46" opacity="0.91">
    <path id="Tracé_253" data-name="Tracé 253" d="M810.719,569.805v-6.329a.894.894,0,0,1,.067-.452,1.319,1.319,0,0,1,.469-.218l.3-.067V569.8h1.205v-7.2h.77v7.2h1.205v-7.232h15.838a5.454,5.454,0,0,1,2.8.753,5.931,5.931,0,0,1,2.076,2.026,5.376,5.376,0,0,1,.82,2.746q.033.838.033,2.009-.034,2.479-.033,2.042h-8.974a.576.576,0,0,1-.469-.2,7.713,7.713,0,0,0-3.315-1.808,7.227,7.227,0,0,0-3.683.018,7.846,7.846,0,0,0-3.315,1.825.482.482,0,0,1-.335.167H807.3l-.168-.033v-1.272q-.034.4-.033-1.541a14.87,14.87,0,0,1,.067-1.54,5.423,5.423,0,0,1,2.243-4.051l.134-.034V569.8h1.172Zm17.077,3.247h8.471V586.21a5.5,5.5,0,0,1-.77,2.846,5.657,5.657,0,0,1-2.076,2.059,5.6,5.6,0,0,1-2.846.753H812.829a5.284,5.284,0,0,1-2.846-.737,5.907,5.907,0,0,1-2.093-2.075,5.41,5.41,0,0,1-.787-2.846V573.085h8.471a7.369,7.369,0,0,0-.937,6.764,7.611,7.611,0,0,0,6.01,4.905,7.558,7.558,0,0,0,3.2-.252,7.317,7.317,0,0,0,2.813-1.574,7.11,7.11,0,0,0,1.875-2.679,7.545,7.545,0,0,0,.569-3.481A8.108,8.108,0,0,0,827.8,573.052ZM821.7,583.1a5.839,5.839,0,0,1-2.913-.753,5.538,5.538,0,0,1-2.109-2.075,5.767,5.767,0,0,1,0-5.758,5.789,5.789,0,0,1,2.109-2.11,5.621,5.621,0,0,1,2.9-.786,5.535,5.535,0,0,1,2.88.786,5.84,5.84,0,0,1,2.093,2.11,5.768,5.768,0,0,1,0,5.758,5.57,5.57,0,0,1-2.093,2.075A5.678,5.678,0,0,1,821.7,583.1Zm4.219-5.725a4.283,4.283,0,0,0-2.109-3.683,4.255,4.255,0,0,0-4.252,0,4.253,4.253,0,0,0-1.54,1.54,4.255,4.255,0,0,0,0,4.252,4.356,4.356,0,0,0,1.54,1.557,4.035,4.035,0,0,0,2.126.586,4.125,4.125,0,0,0,2.126-.57,4.238,4.238,0,0,0,1.54-1.54A4.156,4.156,0,0,0,825.921,577.372Zm7.7-9.878v-1.541a.926.926,0,0,0-.251-.686.883.883,0,0,0-.653-.251q-1.541-.033-3.114,0a.842.842,0,0,0-.67.267,1.03,1.03,0,0,0-.234.7v3.081a.923.923,0,0,0,.251.685.883.883,0,0,0,.653.252h3.081a.869.869,0,0,0,.938-.937Z" transform="translate(-807.103 -562.572)" fill="#0a55c6"/>
  </g>
  <g id="Groupe_47" data-name="Groupe 47" transform="translate(56.91)" opacity="0.91">
    <path id="Tracé_259" data-name="Tracé 259" d="M834.3,633.073a2.128,2.128,0,0,1,1.54.619,2.008,2.008,0,0,1,.636,1.49v25.112a1.951,1.951,0,0,1-.636,1.473,2.119,2.119,0,0,1-1.507.6H809.492a2.112,2.112,0,0,1-1.507-.6,1.948,1.948,0,0,1-.636-1.473V635.182a2.005,2.005,0,0,1,.636-1.49,2.127,2.127,0,0,1,1.54-.619H834.3Zm-18.516,8.855a2.345,2.345,0,0,0,0-3.281,2.434,2.434,0,0,0-1.775-.652,2.494,2.494,0,0,0-1.791.652,2.17,2.17,0,0,0-.686,1.641,2.194,2.194,0,0,0,.67,1.641,2.385,2.385,0,0,0,1.741.653h.033A2.473,2.473,0,0,0,815.787,641.928Zm.4,2.462H811.8v13.226h4.386Zm15.838,5.625a6.415,6.415,0,0,0-1.44-4.486,5.2,5.2,0,0,0-6.261-.7,5.188,5.188,0,0,0-1.306,1.441v-1.875h-4.386q.033.77,0,7.065v6.16h4.386v-7.4a3.284,3.284,0,0,1,.134-1.072,2.666,2.666,0,0,1,.8-1.1,2.224,2.224,0,0,1,1.473-.5,1.93,1.93,0,0,1,1.708.837,3.9,3.9,0,0,1,.5,2.144v7.1h4.386Z" transform="translate(-807.349 -633.073)" fill="#0a55c6"/>
  </g>
  <g id="twitter_1_" data-name="twitter (1)" transform="translate(171.83)" opacity="0.91">
    <path id="Tracé_260" data-name="Tracé 260" d="M304.288,249.775l6.593,9.43h-2.706l-5.38-7.7h0l-.79-1.13-6.285-8.99h2.706l5.072,7.255Z" transform="translate(-288.659 -235.626)" fill="#0a55c6"/>
    <path id="Tracé_261" data-name="Tracé 261" d="M26.132,0H3.166A3.166,3.166,0,0,0,0,3.166V26.132A3.166,3.166,0,0,0,3.166,29.3H26.132A3.166,3.166,0,0,0,29.3,26.132V3.166A3.166,3.166,0,0,0,26.132,0ZM18.687,24.845l-5.444-7.924L6.426,24.845H4.665l7.8-9.062L4.665,4.438h5.946l5.155,7.5,6.455-7.5h1.762l-7.434,8.641h0l8.085,11.766Z" transform="translate(0 0)" fill="#0a55c6"/>
  </g>
  <path id="Soustraction_3" data-name="Soustraction 3" d="M25,29H4a4,4,0,0,1-4-4V4A4,4,0,0,1,4,0H25a4,4,0,0,1,4,4V25A4,4,0,0,1,25,29ZM9.756,10.913v3.6h2.011V24.724h4.253V14.512H18.87l.374-3.6H16.019V8.786a.989.989,0,0,1,.3-.795.911.911,0,0,1,.584-.186H19.2V4.3l-3.155-.023a4.506,4.506,0,0,0-2.664.748,3.6,3.6,0,0,0-1.285,1.706,5.082,5.082,0,0,0-.327,1.847v2.336Z" transform="translate(114 0)" fill="#0a55c6" opacity="0.91"/>
</svg>
