<svg id="Groupe_5655" data-name="Groupe 5655" xmlns="http://www.w3.org/2000/svg" width="182.561" height="26.593" viewBox="0 0 182.561 26.593">
  <g id="Groupe_46" data-name="Groupe 46" transform="translate(0 0)" opacity="0.91">
    <path id="Tracé_253" data-name="Tracé 253" d="M810.385,569.138v-5.745a.811.811,0,0,1,.061-.41,1.2,1.2,0,0,1,.426-.2l.273-.061v6.413h1.094V562.6h.7v6.535h1.094v-6.565h14.376a4.95,4.95,0,0,1,2.538.683,5.383,5.383,0,0,1,1.884,1.839,4.88,4.88,0,0,1,.745,2.492q.03.76.03,1.824-.031,2.25-.03,1.853h-8.145a.523.523,0,0,1-.425-.182A7,7,0,0,0,822,569.439a6.56,6.56,0,0,0-3.343.016,7.121,7.121,0,0,0-3.009,1.656.437.437,0,0,1-.3.152h-8.054l-.152-.03v-1.155q-.031.363-.03-1.4a13.508,13.508,0,0,1,.061-1.4A4.923,4.923,0,0,1,809.2,563.6l.121-.03v5.562h1.064Zm15.5,2.947h7.689v11.943a5,5,0,0,1-.7,2.583,5.136,5.136,0,0,1-1.884,1.869,5.081,5.081,0,0,1-2.583.684H812.3a4.8,4.8,0,0,1-2.583-.669,5.362,5.362,0,0,1-1.9-1.883,4.91,4.91,0,0,1-.714-2.583V572.114h7.689a6.688,6.688,0,0,0-.851,6.139,6.908,6.908,0,0,0,5.455,4.452,6.861,6.861,0,0,0,2.9-.229,6.642,6.642,0,0,0,2.553-1.428,6.454,6.454,0,0,0,1.7-2.431,6.848,6.848,0,0,0,.517-3.16A7.361,7.361,0,0,0,825.885,572.085Zm-5.531,9.118a5.3,5.3,0,0,1-2.644-.684,5.027,5.027,0,0,1-1.915-1.884,5.234,5.234,0,0,1,0-5.227,5.254,5.254,0,0,1,1.915-1.915,5.1,5.1,0,0,1,2.629-.714,5.024,5.024,0,0,1,2.614.714,5.3,5.3,0,0,1,1.9,1.915,5.235,5.235,0,0,1,0,5.227,5.056,5.056,0,0,1-1.9,1.884A5.154,5.154,0,0,1,820.354,581.2Zm3.829-5.2a3.888,3.888,0,0,0-1.915-3.343,3.863,3.863,0,0,0-3.86,0,3.86,3.86,0,0,0-1.4,1.4,3.863,3.863,0,0,0,0,3.86,3.954,3.954,0,0,0,1.4,1.413,3.663,3.663,0,0,0,1.93.532,3.744,3.744,0,0,0,1.93-.517,3.847,3.847,0,0,0,1.4-1.4A3.773,3.773,0,0,0,824.183,576.006Zm6.99-8.966v-1.4a.84.84,0,0,0-.228-.622.8.8,0,0,0-.593-.228q-1.4-.03-2.826,0a.764.764,0,0,0-.608.242.935.935,0,0,0-.213.638v2.8a.838.838,0,0,0,.228.622.8.8,0,0,0,.593.229h2.8a.789.789,0,0,0,.851-.851Z" transform="translate(-807.103 -562.572)" fill="#fff"/>
  </g>
  <g id="Groupe_47" data-name="Groupe 47" transform="translate(51.657 0)" opacity="0.91">
    <path id="Tracé_259" data-name="Tracé 259" d="M831.815,633.073a1.931,1.931,0,0,1,1.4.562,1.823,1.823,0,0,1,.577,1.352v22.794a1.771,1.771,0,0,1-.577,1.337,1.923,1.923,0,0,1-1.368.548H809.294a1.918,1.918,0,0,1-1.368-.548,1.768,1.768,0,0,1-.577-1.337V634.987a1.82,1.82,0,0,1,.577-1.352,1.93,1.93,0,0,1,1.4-.562h22.49Zm-16.807,8.038a2.128,2.128,0,0,0,0-2.978,2.209,2.209,0,0,0-1.611-.592,2.264,2.264,0,0,0-1.626.592,1.969,1.969,0,0,0-.623,1.489,1.991,1.991,0,0,0,.608,1.489,2.165,2.165,0,0,0,1.58.593h.03A2.244,2.244,0,0,0,815.008,641.111Zm.365,2.235h-3.981v12h3.981Zm14.375,5.106a5.822,5.822,0,0,0-1.307-4.072,4.721,4.721,0,0,0-5.683-.639,4.709,4.709,0,0,0-1.185,1.308v-1.7h-3.981q.03.7,0,6.413v5.591h3.981v-6.717a2.979,2.979,0,0,1,.122-.973,2.421,2.421,0,0,1,.729-1,2.019,2.019,0,0,1,1.337-.457,1.752,1.752,0,0,1,1.55.76,3.543,3.543,0,0,1,.456,1.946v6.442h3.981Z" transform="translate(-807.349 -633.073)" fill="#fff"/>
  </g>
  <g id="twitter_1_" data-name="twitter (1)" transform="translate(155.967 0)" opacity="0.91">
    <path id="Tracé_260" data-name="Tracé 260" d="M303.5,249l5.984,8.56h-2.456l-4.884-6.985h0l-.717-1.025-5.7-8.16h2.456l4.6,6.585Z" transform="translate(-289.311 -236.158)" fill="#fff"/>
    <path id="Tracé_261" data-name="Tracé 261" d="M23.72,0H2.873A2.874,2.874,0,0,0,0,2.873V23.72a2.874,2.874,0,0,0,2.873,2.873H23.72a2.874,2.874,0,0,0,2.873-2.873V2.873A2.874,2.874,0,0,0,23.72,0ZM16.962,22.551,12.02,15.359,5.833,22.551h-1.6l7.076-8.225L4.234,4.028h5.4l4.68,6.81,5.859-6.81h1.6l-6.748,7.844h0l7.339,10.68Z" transform="translate(0)" fill="#fff"/>
  </g>
  <path id="Soustraction_3" data-name="Soustraction 3" d="M22,26H4a4,4,0,0,1-4-4V4A4,4,0,0,1,4,0H22a4,4,0,0,1,4,4V22A4,4,0,0,1,22,26ZM8.747,9.784V13.01h1.8v9.156h3.813V13.01h2.556l.335-3.227H14.362V7.877a.885.885,0,0,1,.272-.712A.815.815,0,0,1,15.158,7h2.054V3.855l-2.829-.022a4.042,4.042,0,0,0-2.389.671,3.232,3.232,0,0,0-1.152,1.53,4.55,4.55,0,0,0-.293,1.655v2.1Z" transform="translate(103 0.501)" fill="#fff" opacity="0.91"/>
</svg>
